<?xml version="1.0" encoding="utf-8"?>
<svg width="108.00006px" height="116.00006px" viewBox="0 0 108.00006 116.00006" version="1.1" xmlns:xlink="http://www.w3.org/1999/xlink" xmlns="http://www.w3.org/2000/svg">
  <g id="Group">
    <path d="M81.2167 57.8711L81.2167 32.2345C82.6516 33.963 83.9702 35.8222 85.1253 37.8266C93.7962 52.8345 91.6821 71.1542 81.2167 83.7727L81.2167 57.8711L81.2167 57.8711ZM33.8373 85.2216L55.8651 97.9309C40.0453 100.164 23.6952 92.8363 15.224 78.1733C14.2738 76.5218 13.44 74.8062 12.7285 73.0387L33.8373 85.2216L33.8373 85.2216ZM34.4112 30.8801L12.387 43.5967C18.3625 28.7812 32.8855 18.2906 49.8241 18.2906C51.7566 18.2942 53.6601 18.4395 55.52 18.7009L34.4112 30.8801L34.4112 30.8801ZM8.48922 38.2697L8.48922 78.2569C5.48373 72.0205 3.92655 65.1858 3.934 58.2633C3.934 51.1062 5.56864 44.323 8.48922 38.2697L8.48922 38.2697ZM87.9116 32.4015L53.2678 12.4079C59.9699 12.9127 66.6684 14.8844 72.8691 18.4612C79.0699 22.038 84.1301 26.8494 87.9116 32.4015L87.9116 32.4015ZM53.286 104.097L87.9297 84.1032C84.1409 89.659 79.0808 94.4667 72.88 98.0435C66.6792 101.62 59.9881 103.596 53.286 104.097L53.286 104.097ZM23.8695 14.2599L0.73374 27.6156C10.8659 10.7905 28.943 0.358021 48.5854 0L23.8695 14.2599L23.8695 14.2599ZM24.7159 102.652L47.8517 116C28.2093 115.642 10.1322 105.21 0 88.3844L24.7159 102.652L24.7159 102.652ZM100.869 57.7186L100.869 31.0144C110.377 48.1993 110.377 69.0644 100.869 86.2493L100.869 57.7186L100.869 57.7186Z" id="Shape" fill="#47ACD9" fill-rule="evenodd" stroke="none" />
    <path d="M64.5914 86.0353C80.0516 77.1134 85.3733 57.2832 76.4408 41.8286C67.5229 26.374 47.6819 21.0615 32.2181 29.9835C16.7616 38.9018 11.4435 58.7357 20.3724 74.1902C29.2939 89.6448 49.1349 94.9573 64.5915 86.0353L64.5914 86.0353ZM63.7414 49.1638C66.9079 54.6425 66.9093 61.3939 63.7452 66.8739C60.5811 72.354 54.7323 75.73 48.4026 75.7298C42.073 75.7296 36.2244 72.3533 33.0606 66.873C30.7119 62.8056 30.076 57.972 31.2927 53.4358C32.5094 48.8996 35.4791 45.0325 39.5484 42.6853C43.6158 40.337 48.4499 39.7002 52.9871 40.9152C57.5242 42.1301 61.3926 45.0971 63.7412 49.1634L63.7414 49.1638Z" id="Shape" fill="#47ACD9" fill-rule="evenodd" stroke="none" />
    <path d="M37 67.2417L37 49L41.2477 49L48.805 61.4043L46.5639 61.4043L53.9126 49L58.1603 49L58.2125 67.2417L53.4696 67.2417L53.4175 56.2185L54.2254 56.2185L48.7268 65.4436L46.4336 65.4436L40.7786 56.2185L41.7689 56.2185L41.7689 67.2417L37 67.2417Z" id="Path" fill="#47ACD9" fill-rule="evenodd" stroke="none" />
  </g>
</svg>